<?xml version="1.0" encoding="UTF-8"?>
<svg xmlns="http://www.w3.org/2000/svg" xmlns:xlink="http://www.w3.org/1999/xlink" viewBox="0 0 30 30" width="30px" height="30px">
<g id="surface50947009">
<path style=" stroke:none;fill-rule:nonzero;fill:rgb(100%,100%,100%);fill-opacity:1;" d="M 15.015625 2.5 C 8.132812 2.5 2.53125 8.097656 2.527344 14.980469 C 2.527344 17.179688 3.101562 19.328125 4.195312 21.21875 L 2.5 27.5 L 9.039062 25.953125 C 10.863281 26.949219 12.917969 27.472656 15.007812 27.472656 L 15.011719 27.472656 C 21.894531 27.472656 27.492188 21.875 27.496094 14.992188 C 27.5 11.65625 26.203125 8.519531 23.84375 6.160156 C 21.488281 3.800781 18.355469 2.5 15.015625 2.5 Z M 15.011719 5 C 17.683594 5 20.191406 6.042969 22.078125 7.925781 C 23.964844 9.816406 25 12.324219 24.996094 14.992188 C 24.996094 20.496094 20.515625 24.972656 15.011719 24.972656 C 13.34375 24.972656 11.691406 24.554688 10.238281 23.761719 L 9.398438 23.300781 L 8.46875 23.519531 L 6.007812 24.101562 L 6.605469 21.871094 L 6.878906 20.867188 L 6.359375 19.96875 C 5.488281 18.460938 5.027344 16.734375 5.027344 14.980469 C 5.03125 9.476562 9.507812 5 15.011719 5 Z M 10.597656 9.21875 C 10.386719 9.21875 10.050781 9.296875 9.761719 9.609375 C 9.476562 9.921875 8.667969 10.675781 8.667969 12.210938 C 8.667969 13.746094 9.789062 15.226562 9.945312 15.4375 C 10.097656 15.644531 12.101562 18.894531 15.273438 20.144531 C 17.910156 21.183594 18.445312 20.976562 19.015625 20.925781 C 19.589844 20.875 20.863281 20.171875 21.125 19.445312 C 21.382812 18.714844 21.382812 18.085938 21.304688 17.960938 C 21.230469 17.828125 21.019531 17.75 20.707031 17.59375 C 20.398438 17.4375 18.863281 16.6875 18.578125 16.582031 C 18.289062 16.476562 18.082031 16.425781 17.875 16.738281 C 17.667969 17.050781 17.070312 17.75 16.886719 17.960938 C 16.703125 18.167969 16.523438 18.195312 16.210938 18.039062 C 15.898438 17.882812 14.894531 17.550781 13.703125 16.488281 C 12.773438 15.664062 12.148438 14.644531 11.964844 14.332031 C 11.785156 14.019531 11.949219 13.847656 12.105469 13.695312 C 12.246094 13.554688 12.414062 13.328125 12.570312 13.148438 C 12.726562 12.964844 12.78125 12.835938 12.882812 12.625 C 12.988281 12.417969 12.933594 12.238281 12.855469 12.082031 C 12.777344 11.925781 12.171875 10.382812 11.894531 9.765625 C 11.660156 9.246094 11.414062 9.234375 11.191406 9.226562 C 11.011719 9.21875 10.804688 9.21875 10.597656 9.21875 Z M 10.597656 9.21875 "/>
</g>
</svg>
